<svg version="1.1" id="Layer_1" xmlns="http://www.w3.org/2000/svg" xmlns:xlink="http://www.w3.org/1999/xlink" x="0px" y="0px"
	 width="100%" viewBox="0 0 1200 1200" enable-background="new 0 0 1200 1200" xml:space="preserve">
<path fill="#000000" opacity="1.000000" stroke="none" 
	d="
M702.000000,1201.000000 
	C468.000000,1201.000000 234.500000,1201.000000 1.000000,1201.000000 
	C1.000000,801.000000 1.000000,401.000000 1.000000,1.000000 
	C401.000000,1.000000 801.000000,1.000000 1201.000000,1.000000 
	C1201.000000,401.000000 1201.000000,801.000000 1201.000000,1201.000000 
	C1034.833374,1201.000000 868.666687,1201.000000 702.000000,1201.000000 
M838.999146,600.496216 
	C838.997437,559.003540 839.006836,517.510864 838.983948,476.018219 
	C838.979919,468.668793 838.327698,468.014343 830.968445,468.013672 
	C685.993347,468.000702 541.018250,468.000732 396.043121,468.013550 
	C388.670746,468.014191 388.017914,468.665680 388.014465,476.004089 
	C387.993744,520.329834 387.993805,564.655518 388.014374,608.981262 
	C388.017792,616.329346 388.670502,616.919189 396.031036,616.993286 
	C396.864166,617.001648 397.697418,616.998230 398.530609,616.998230 
	C541.839355,616.998413 685.148071,616.998596 828.456787,616.995422 
	C830.289429,616.995361 832.122070,616.952454 833.954712,616.927673 
	C837.202148,616.883789 838.886292,615.252258 838.922791,611.990173 
	C838.961914,608.491333 838.974854,604.992249 838.999146,600.496216 
z"/>
<path fill="#171813" opacity="1.000000" stroke="none" 
	d="
M838.999146,600.994751 
	C838.974854,604.992249 838.961914,608.491333 838.922791,611.990173 
	C838.886292,615.252258 837.202148,616.883789 833.954712,616.927673 
	C832.122070,616.952454 830.289429,616.995361 828.456787,616.995422 
	C685.148071,616.998596 541.839355,616.998413 398.530609,616.998230 
	C397.697418,616.998230 396.864166,617.001648 396.031036,616.993286 
	C388.670502,616.919189 388.017792,616.329346 388.014374,608.981262 
	C387.993805,564.655518 387.993744,520.329834 388.014465,476.004089 
	C388.017914,468.665680 388.670746,468.014191 396.043121,468.013550 
	C541.018250,468.000732 685.993347,468.000702 830.968445,468.013672 
	C838.327698,468.014343 838.979919,468.668793 838.983948,476.018219 
	C839.006836,517.510864 838.997437,559.003540 838.999146,600.994751 
M834.000854,572.500000 
	C834.000488,542.338684 834.008118,512.177368 833.994690,482.016083 
	C833.990784,473.368073 833.634399,473.008759 824.968201,473.008331 
	C683.993042,473.001709 543.017822,473.001678 402.042664,473.008240 
	C393.367493,473.008636 393.011353,473.365082 393.008759,482.006866 
	C392.996765,521.666565 393.001251,561.326233 393.003235,600.985901 
	C393.003815,611.995117 393.009155,612.000061 404.033081,612.000183 
	C543.675171,612.001282 683.317261,612.000916 822.959351,612.000122 
	C824.459045,612.000122 825.964233,611.902893 827.457397,611.998718 
	C832.127136,612.298340 834.093445,610.194458 834.029602,605.493591 
	C833.884827,594.830933 833.994568,584.164734 834.000854,572.500000 
z"/>
<path fill="#000000" opacity="1.000000" stroke="none" 
	d="
M834.000854,573.000000 
	C833.994568,584.164734 833.884827,594.830933 834.029602,605.493591 
	C834.093445,610.194458 832.127136,612.298340 827.457397,611.998718 
	C825.964233,611.902893 824.459045,612.000122 822.959351,612.000122 
	C683.317261,612.000916 543.675171,612.001282 404.033081,612.000183 
	C393.009155,612.000061 393.003815,611.995117 393.003235,600.985901 
	C393.001251,561.326233 392.996765,521.666565 393.008759,482.006866 
	C393.011353,473.365082 393.367493,473.008636 402.042664,473.008240 
	C543.017822,473.001678 683.993042,473.001709 824.968201,473.008331 
	C833.634399,473.008759 833.990784,473.368073 833.994690,482.016083 
	C834.008118,512.177368 834.000488,542.338684 834.000854,573.000000 
M648.780701,521.254395 
	C652.790405,511.227875 658.084412,502.302460 669.294067,499.008057 
	C677.388611,496.629120 679.241333,498.459229 677.108215,506.452759 
	C671.312378,528.171448 665.424622,549.865723 659.627075,571.583984 
	C657.299744,580.302856 656.813416,580.680481 647.730591,581.060181 
	C645.585876,581.149902 643.469421,581.914001 641.339966,582.367859 
	C647.029724,586.245422 681.680603,585.484924 685.181152,582.019836 
	C683.021545,581.620300 681.385559,581.120056 679.730103,581.044250 
	C670.839905,580.637451 670.359619,580.145020 672.625000,571.630859 
	C678.490417,549.586609 684.450317,527.567566 690.370178,505.537842 
	C692.323608,498.268524 695.872192,496.477661 702.940063,499.236115 
	C708.000549,501.211090 710.538086,505.138397 710.832947,510.365784 
	C711.066528,514.508301 710.622314,518.685730 710.751526,522.839111 
	C710.806458,524.602722 711.557739,526.344727 711.992554,528.096558 
	C713.199890,526.561401 715.047852,525.195007 715.504333,523.462097 
	C717.539124,515.737793 719.214478,507.917267 720.942871,500.114471 
	C722.019287,495.254761 721.176636,494.082428 716.050049,494.060730 
	C696.394226,493.977539 676.737793,494.067566 657.081970,493.988190 
	C653.392090,493.973297 651.162048,495.324738 650.126160,498.976959 
	C647.900024,506.825012 645.370789,514.588501 643.234131,522.459473 
	C642.781067,524.128540 643.476013,526.109253 643.642029,527.946411 
	C644.990845,526.558105 646.381653,525.207031 647.664612,523.760254 
	C648.085632,523.285461 648.226685,522.562439 648.780701,521.254395 
M468.396271,516.897400 
	C456.488434,534.578247 444.461853,552.180908 432.738251,569.983032 
	C428.717926,576.087830 423.746246,580.052307 416.352539,580.850525 
	C414.623627,581.037231 412.975586,581.972839 411.290314,582.563843 
	C411.380371,583.255432 411.470398,583.946960 411.560425,584.638489 
	C422.992126,585.311401 434.462189,585.090027 445.927246,584.686768 
	C446.885864,584.653015 447.805725,583.517700 448.743591,582.894165 
	C448.637726,582.469788 448.531860,582.045410 448.425995,581.621033 
	C446.699890,581.344055 444.760437,581.467407 443.301208,580.689636 
	C441.442841,579.699097 439.035492,578.259216 438.516693,576.520264 
	C437.126495,571.860229 447.921692,555.497986 452.675140,554.310059 
	C453.473755,554.110474 454.325867,554.058838 455.153900,554.054138 
	C459.817932,554.027649 464.483093,554.094116 469.145966,554.015259 
	C473.083435,553.948730 475.010742,555.694458 474.940979,559.711243 
	C474.862915,564.207520 475.004700,568.707520 474.922516,573.203613 
	C474.812927,579.197388 473.658447,580.285828 467.639191,581.023071 
	C465.820251,581.245850 464.065948,581.996338 462.282043,582.505127 
	C468.072693,586.160339 496.769348,585.466370 499.843872,582.613098 
	C499.353973,582.187805 498.945526,581.616699 498.399567,581.411560 
	C497.637512,581.125244 496.773163,581.109253 495.951752,580.983154 
	C489.347565,579.969177 488.052460,578.617188 488.034332,571.879639 
	C487.970215,548.058228 488.041199,524.236267 487.886627,500.415649 
	C487.874542,498.547882 486.516785,496.688873 485.784424,494.825775 
	C484.269318,495.943817 482.364960,496.778259 481.307404,498.229675 
	C476.995026,504.148254 472.941803,510.255646 468.396271,516.897400 
M529.836792,563.483765 
	C529.751587,559.976562 528.477417,557.191162 524.765747,556.435852 
	C520.515869,555.571045 516.442871,555.868042 513.289917,559.455200 
	C505.732788,568.053101 510.410919,583.205505 521.539062,585.434875 
	C527.978210,586.724731 534.383240,586.354614 540.535339,583.265625 
	C550.453857,578.285522 556.369263,570.221680 559.238892,559.794556 
	C564.277039,541.488403 569.236450,523.158875 573.991333,504.777649 
	C575.364807,499.468262 578.001099,496.651306 583.710754,496.907898 
	C585.414917,496.984436 587.162048,496.104034 588.889526,495.662048 
	C588.873962,495.175385 588.858398,494.688690 588.842773,494.202026 
	C587.701599,493.826996 586.562500,493.133698 585.418945,493.126129 
	C573.923584,493.050140 562.426880,493.033783 550.932495,493.165344 
	C549.641479,493.180115 548.362061,494.211243 547.077332,494.771057 
	C547.171082,495.344116 547.264832,495.917175 547.358643,496.490234 
	C550.058777,496.665741 552.756470,496.907318 555.459473,497.003479 
	C561.832458,497.230347 562.711609,498.140167 561.143799,504.115173 
	C555.648438,525.058044 550.086548,545.983826 544.432251,566.884277 
	C542.894226,572.569519 539.557434,577.091309 534.272888,579.927917 
	C530.532715,581.935486 526.533386,582.504883 522.884094,580.059326 
	C521.460876,579.105591 520.301636,577.007446 520.089050,575.297913 
	C519.973816,574.371216 521.924011,572.627991 523.252686,572.186646 
	C527.213440,570.870850 529.373962,568.367310 529.836792,563.483765 
M618.095093,520.633606 
	C619.513245,515.324036 621.013184,510.034515 622.324585,504.698730 
	C623.437988,500.169006 626.059937,497.923218 630.835754,497.952911 
	C632.867615,497.965546 634.904236,497.229858 638.156738,496.597382 
	C631.829651,492.692444 602.277405,493.382019 599.088257,497.161255 
	C601.001648,497.489105 602.520447,497.862000 604.059753,497.993073 
	C609.909729,498.491333 610.669006,499.260620 609.239014,504.710175 
	C603.237061,527.583191 597.026489,550.401978 591.123291,573.300110 
	C589.741211,578.661011 587.042053,581.335632 581.382385,581.097900 
	C579.684387,581.026611 577.944641,581.950928 575.478333,582.622070 
	C580.873108,586.223572 610.638855,585.660583 613.978088,582.128601 
	C612.522400,581.711792 611.366272,581.215698 610.166687,581.064331 
	C602.976013,580.157166 602.462219,579.385559 604.280579,572.603149 
	C608.851501,555.553162 613.366272,538.488159 618.095093,520.633606 
M763.201416,570.402893 
	C758.850830,571.669373 757.056702,574.776306 757.506287,579.049072 
	C757.890503,582.701233 760.084961,585.588806 763.815674,585.541016 
	C766.653259,585.504639 770.347534,584.624329 772.036621,582.696533 
	C773.565552,580.951538 773.780701,576.999634 772.994141,574.522949 
	C771.736145,570.561707 767.956177,569.677490 763.201416,570.402893 
z"/>
<path fill="#171813" opacity="1.000000" stroke="none" 
	d="
M648.638184,521.603638 
	C648.226685,522.562439 648.085632,523.285461 647.664612,523.760254 
	C646.381653,525.207031 644.990845,526.558105 643.641968,527.946411 
	C643.476013,526.109253 642.781067,524.128540 643.234131,522.459473 
	C645.370789,514.588501 647.900024,506.825012 650.126160,498.976959 
	C651.162048,495.324738 653.392090,493.973297 657.081970,493.988190 
	C676.737793,494.067566 696.394226,493.977539 716.050049,494.060730 
	C721.176636,494.082428 722.019287,495.254761 720.942871,500.114471 
	C719.214478,507.917267 717.539124,515.737793 715.504333,523.462097 
	C715.047852,525.195007 713.199890,526.561401 711.992554,528.096558 
	C711.557739,526.344727 710.806458,524.602722 710.751526,522.839111 
	C710.622314,518.685730 711.066528,514.508301 710.832947,510.365784 
	C710.538086,505.138397 708.000549,501.211090 702.940063,499.236115 
	C695.872192,496.477661 692.323608,498.268524 690.370178,505.537842 
	C684.450317,527.567566 678.490417,549.586609 672.625000,571.630859 
	C670.359619,580.145020 670.839905,580.637451 679.730103,581.044250 
	C681.385559,581.120056 683.021545,581.620300 685.181152,582.019836 
	C681.680603,585.484924 647.029724,586.245422 641.339966,582.367859 
	C643.469421,581.914001 645.585876,581.149902 647.730591,581.060181 
	C656.813416,580.680481 657.299744,580.302856 659.627075,571.583984 
	C665.424622,549.865723 671.312378,528.171448 677.108215,506.452759 
	C679.241333,498.459229 677.388611,496.629120 669.294067,499.008057 
	C658.084412,502.302460 652.790405,511.227875 648.638184,521.603638 
z"/>
<path fill="#171813" opacity="1.000000" stroke="none" 
	d="
M468.594666,516.595459 
	C472.941803,510.255646 476.995026,504.148254 481.307404,498.229675 
	C482.364960,496.778259 484.269318,495.943817 485.784424,494.825775 
	C486.516785,496.688873 487.874542,498.547882 487.886627,500.415649 
	C488.041199,524.236267 487.970215,548.058228 488.034332,571.879639 
	C488.052460,578.617188 489.347565,579.969177 495.951752,580.983154 
	C496.773163,581.109253 497.637512,581.125244 498.399567,581.411560 
	C498.945526,581.616699 499.353973,582.187805 499.843872,582.613098 
	C496.769348,585.466370 468.072693,586.160339 462.282043,582.505127 
	C464.065948,581.996338 465.820251,581.245850 467.639191,581.023071 
	C473.658447,580.285828 474.812927,579.197388 474.922516,573.203613 
	C475.004700,568.707520 474.862915,564.207520 474.940979,559.711243 
	C475.010742,555.694458 473.083435,553.948730 469.145966,554.015259 
	C464.483093,554.094116 459.817932,554.027649 455.153900,554.054138 
	C454.325867,554.058838 453.473755,554.110474 452.675140,554.310059 
	C447.921692,555.497986 437.126495,571.860229 438.516693,576.520264 
	C439.035492,578.259216 441.442841,579.699097 443.301208,580.689636 
	C444.760437,581.467407 446.699890,581.344055 448.425995,581.621033 
	C448.531860,582.045410 448.637726,582.469788 448.743591,582.894165 
	C447.805725,583.517700 446.885864,584.653015 445.927246,584.686768 
	C434.462189,585.090027 422.992126,585.311401 411.560425,584.638489 
	C411.470398,583.946960 411.380371,583.255432 411.290314,582.563843 
	C412.975586,581.972839 414.623627,581.037231 416.352539,580.850525 
	C423.746246,580.052307 428.717926,576.087830 432.738251,569.983032 
	C444.461853,552.180908 456.488434,534.578247 468.594666,516.595459 
M460.592041,539.093445 
	C458.673767,542.221680 456.755524,545.349854 454.102509,549.676270 
	C461.069275,549.676270 466.469299,549.802673 471.852325,549.557678 
	C472.800903,549.514465 474.449036,547.935852 474.469757,547.036316 
	C474.669281,538.372192 474.589325,529.701721 474.589325,521.033020 
	C474.166901,520.900757 473.744476,520.768433 473.322052,520.636108 
	C469.214905,526.590698 465.107788,532.545227 460.592041,539.093445 
z"/>
<path fill="#171813" opacity="1.000000" stroke="none" 
	d="
M529.823608,563.881104 
	C529.373962,568.367310 527.213440,570.870850 523.252686,572.186646 
	C521.924011,572.627991 519.973816,574.371216 520.089050,575.297913 
	C520.301636,577.007446 521.460876,579.105591 522.884094,580.059326 
	C526.533386,582.504883 530.532715,581.935486 534.272888,579.927917 
	C539.557434,577.091309 542.894226,572.569519 544.432251,566.884277 
	C550.086548,545.983826 555.648438,525.058044 561.143799,504.115173 
	C562.711609,498.140167 561.832458,497.230347 555.459473,497.003479 
	C552.756470,496.907318 550.058777,496.665741 547.358643,496.490234 
	C547.264832,495.917175 547.171082,495.344116 547.077332,494.771057 
	C548.362061,494.211243 549.641479,493.180115 550.932495,493.165344 
	C562.426880,493.033783 573.923584,493.050140 585.418945,493.126129 
	C586.562500,493.133698 587.701599,493.826996 588.842773,494.202026 
	C588.858398,494.688690 588.873962,495.175385 588.889526,495.662048 
	C587.162048,496.104034 585.414917,496.984436 583.710754,496.907898 
	C578.001099,496.651306 575.364807,499.468262 573.991333,504.777649 
	C569.236450,523.158875 564.277039,541.488403 559.238892,559.794556 
	C556.369263,570.221680 550.453857,578.285522 540.535339,583.265625 
	C534.383240,586.354614 527.978210,586.724731 521.539062,585.434875 
	C510.410919,583.205505 505.732788,568.053101 513.289917,559.455200 
	C516.442871,555.868042 520.515869,555.571045 524.765747,556.435852 
	C528.477417,557.191162 529.751587,559.976562 529.823608,563.881104 
z"/>
<path fill="#171813" opacity="1.000000" stroke="none" 
	d="
M617.999329,521.031372 
	C613.366272,538.488159 608.851501,555.553162 604.280579,572.603149 
	C602.462219,579.385559 602.976013,580.157166 610.166687,581.064331 
	C611.366272,581.215698 612.522400,581.711792 613.978088,582.128601 
	C610.638855,585.660583 580.873108,586.223572 575.478333,582.622070 
	C577.944641,581.950928 579.684387,581.026611 581.382385,581.097900 
	C587.042053,581.335632 589.741211,578.661011 591.123291,573.300110 
	C597.026489,550.401978 603.237061,527.583191 609.239014,504.710175 
	C610.669006,499.260620 609.909729,498.491333 604.059753,497.993073 
	C602.520447,497.862000 601.001648,497.489105 599.088257,497.161255 
	C602.277405,493.382019 631.829651,492.692444 638.156738,496.597382 
	C634.904236,497.229858 632.867615,497.965546 630.835754,497.952911 
	C626.059937,497.923218 623.437988,500.169006 622.324585,504.698730 
	C621.013184,510.034515 619.513245,515.324036 617.999329,521.031372 
z"/>
<path fill="#171813" opacity="1.000000" stroke="none" 
	d="
M763.591614,570.329712 
	C767.956177,569.677490 771.736145,570.561707 772.994141,574.522949 
	C773.780701,576.999634 773.565552,580.951538 772.036621,582.696533 
	C770.347534,584.624329 766.653259,585.504639 763.815674,585.541016 
	C760.084961,585.588806 757.890503,582.701233 757.506287,579.049072 
	C757.056702,574.776306 758.850830,571.669373 763.591614,570.329712 
z"/>
<path fill="#000000" opacity="1.000000" stroke="none" 
	d="
M460.796326,538.796631 
	C465.107788,532.545227 469.214905,526.590698 473.322052,520.636108 
	C473.744476,520.768433 474.166901,520.900757 474.589325,521.033020 
	C474.589325,529.701721 474.669281,538.372192 474.469757,547.036316 
	C474.449036,547.935852 472.800903,549.514465 471.852325,549.557678 
	C466.469299,549.802673 461.069275,549.676270 454.102509,549.676270 
	C456.755524,545.349854 458.673767,542.221680 460.796326,538.796631 
z"/>
</svg>