<svg id="visual" viewBox="0 0 900 600" width="900" height="600" xmlns="http://www.w3.org/2000/svg" xmlns:xlink="http://www.w3.org/1999/xlink" version="1.1"><g transform="translate(474.9727738887521 331.2229267638254)"><path d="M151.7 -214.5C192.9 -178.9 220.1 -129.6 225.3 -80.9C230.5 -32.2 213.7 15.9 195.5 60.9C177.3 106 157.7 148.1 124.9 174.1C92.1 200.1 46 210 4.7 203.6C-36.7 197.2 -73.5 174.5 -120.1 152.9C-166.7 131.4 -223.1 111.1 -252.3 70.4C-281.5 29.7 -283.4 -31.5 -261 -80C-238.6 -128.4 -191.9 -164.1 -144.3 -197.7C-96.8 -231.2 -48.4 -262.6 3.4 -267.3C55.3 -272 110.5 -250.1 151.7 -214.5" fill="#ec7575"></path></g></svg>